<mxfile host="Electron" modified="2024-05-11T09:08:41.172Z" agent="Mozilla/5.0 (Windows NT 10.0; Win64; x64) AppleWebKit/537.36 (KHTML, like Gecko) draw.io/24.2.5 Chrome/120.0.6099.109 Electron/28.1.0 Safari/537.36" etag="E3FnS9exJ38oFUj-l_Ya" version="24.2.5" type="device">
  <diagram name="Pagina-1" id="TxnwpuVdhY2oEdFZPE9q">
    <mxGraphModel dx="1395" dy="336" grid="1" gridSize="10" guides="1" tooltips="1" connect="1" arrows="1" fold="1" page="1" pageScale="1" pageWidth="827" pageHeight="1169" math="0" shadow="0">
      <root>
        <mxCell id="0" />
        <mxCell id="1" parent="0" />
        <mxCell id="G0t1F4hipUzazLxo6w_u-1" style="edgeStyle=orthogonalEdgeStyle;rounded=0;orthogonalLoop=1;jettySize=auto;html=1;exitX=0;exitY=0.5;exitDx=0;exitDy=0;endArrow=oval;endFill=0;" edge="1" parent="1">
          <mxGeometry relative="1" as="geometry">
            <mxPoint x="-240" y="80" as="targetPoint" />
            <mxPoint x="-220" y="77.1150000000001" as="sourcePoint" />
            <Array as="points">
              <mxPoint x="-220" y="80" />
            </Array>
          </mxGeometry>
        </mxCell>
        <mxCell id="G0t1F4hipUzazLxo6w_u-2" value="Visitatore" style="whiteSpace=wrap;html=1;align=center;" vertex="1" parent="1">
          <mxGeometry x="-220" y="50" width="60" height="40.01" as="geometry" />
        </mxCell>
        <mxCell id="G0t1F4hipUzazLxo6w_u-3" value="Oggetti Informatici" style="whiteSpace=wrap;html=1;align=center;" vertex="1" parent="1">
          <mxGeometry x="144.37" y="51.00000000000001" width="100" height="35" as="geometry" />
        </mxCell>
        <mxCell id="G0t1F4hipUzazLxo6w_u-57" style="edgeStyle=orthogonalEdgeStyle;rounded=0;orthogonalLoop=1;jettySize=auto;html=1;exitX=1;exitY=0.5;exitDx=0;exitDy=0;endArrow=none;endFill=0;" edge="1" parent="1" source="G0t1F4hipUzazLxo6w_u-4">
          <mxGeometry relative="1" as="geometry">
            <mxPoint x="144" y="70.06060606060606" as="targetPoint" />
          </mxGeometry>
        </mxCell>
        <mxCell id="G0t1F4hipUzazLxo6w_u-4" value="Visita" style="shape=rhombus;perimeter=rhombusPerimeter;whiteSpace=wrap;html=1;align=center;" vertex="1" parent="1">
          <mxGeometry x="-20.620000000000005" y="50.01999999999999" width="67.5" height="39.99" as="geometry" />
        </mxCell>
        <mxCell id="G0t1F4hipUzazLxo6w_u-5" value="&lt;font style=&quot;font-size: 8px;&quot;&gt;Nome&lt;/font&gt;" style="text;html=1;align=center;verticalAlign=middle;whiteSpace=wrap;rounded=0;" vertex="1" parent="1">
          <mxGeometry x="-220" y="17.509999999999998" width="25" height="10" as="geometry" />
        </mxCell>
        <mxCell id="G0t1F4hipUzazLxo6w_u-6" value="&lt;font style=&quot;font-size: 8px;&quot;&gt;Cognome&lt;/font&gt;" style="text;html=1;align=center;verticalAlign=middle;whiteSpace=wrap;rounded=0;" vertex="1" parent="1">
          <mxGeometry x="-200" y="7.509999999999999" width="60" height="30" as="geometry" />
        </mxCell>
        <mxCell id="G0t1F4hipUzazLxo6w_u-7" value="&lt;font style=&quot;font-size: 8px;&quot;&gt;Misura&lt;/font&gt;" style="text;html=1;align=center;verticalAlign=middle;whiteSpace=wrap;rounded=1;strokeColor=none;" vertex="1" parent="1">
          <mxGeometry x="260.49" y="60.75" width="50" height="21" as="geometry" />
        </mxCell>
        <mxCell id="G0t1F4hipUzazLxo6w_u-8" value="&lt;font style=&quot;font-size: 8px;&quot;&gt;Modello&lt;/font&gt;" style="text;html=1;align=center;verticalAlign=middle;whiteSpace=wrap;rounded=1;strokeColor=none;" vertex="1" parent="1">
          <mxGeometry x="220.62" y="13.510000000000009" width="40" height="20" as="geometry" />
        </mxCell>
        <mxCell id="G0t1F4hipUzazLxo6w_u-9" value="&lt;font style=&quot;font-size: 8px;&quot;&gt;Marca&lt;/font&gt;" style="text;html=1;align=center;verticalAlign=middle;whiteSpace=wrap;rounded=1;strokeColor=none;glass=0;" vertex="1" parent="1">
          <mxGeometry x="181.25" y="16.01" width="50" height="15" as="geometry" />
        </mxCell>
        <mxCell id="G0t1F4hipUzazLxo6w_u-10" value="&lt;font style=&quot;font-size: 8px;&quot;&gt;Ora&lt;/font&gt;" style="text;html=1;align=center;verticalAlign=middle;whiteSpace=wrap;rounded=1;strokeColor=none;glass=0;" vertex="1" parent="1">
          <mxGeometry x="-88" y="34" width="50" height="15" as="geometry" />
        </mxCell>
        <mxCell id="G0t1F4hipUzazLxo6w_u-11" value="&lt;font style=&quot;font-size: 8px;&quot;&gt;Data&lt;/font&gt;" style="text;html=1;align=center;verticalAlign=middle;whiteSpace=wrap;rounded=1;strokeColor=none;glass=0;" vertex="1" parent="1">
          <mxGeometry x="-90" y="20.009999999999998" width="50" height="15" as="geometry" />
        </mxCell>
        <mxCell id="G0t1F4hipUzazLxo6w_u-14" value="&lt;font style=&quot;font-size: 8px;&quot;&gt;(1,N)&lt;/font&gt;" style="text;html=1;align=center;verticalAlign=middle;whiteSpace=wrap;rounded=1;strokeColor=none;glass=0;" vertex="1" parent="1">
          <mxGeometry x="-62.49999999999999" y="53.75" width="50" height="15" as="geometry" />
        </mxCell>
        <mxCell id="G0t1F4hipUzazLxo6w_u-15" value="&lt;font style=&quot;font-size: 8px;&quot;&gt;(0,N)&lt;/font&gt;" style="text;html=1;align=center;verticalAlign=middle;whiteSpace=wrap;rounded=1;strokeColor=none;glass=0;" vertex="1" parent="1">
          <mxGeometry x="20.000000000000007" y="47.129999999999995" width="50" height="15" as="geometry" />
        </mxCell>
        <mxCell id="G0t1F4hipUzazLxo6w_u-16" value="&lt;font style=&quot;font-size: 8px;&quot;&gt;CF&lt;/font&gt;" style="text;html=1;align=center;verticalAlign=middle;whiteSpace=wrap;rounded=0;" vertex="1" parent="1">
          <mxGeometry x="-260" y="54.379999999999995" width="20" height="10" as="geometry" />
        </mxCell>
        <mxCell id="G0t1F4hipUzazLxo6w_u-17" style="edgeStyle=orthogonalEdgeStyle;rounded=0;orthogonalLoop=1;jettySize=auto;html=1;exitX=0;exitY=0;exitDx=0;exitDy=0;endArrow=oval;endFill=0;" edge="1" parent="1">
          <mxGeometry relative="1" as="geometry">
            <mxPoint x="-210" y="32" as="targetPoint" />
            <mxPoint x="-210" y="50" as="sourcePoint" />
            <Array as="points" />
          </mxGeometry>
        </mxCell>
        <mxCell id="G0t1F4hipUzazLxo6w_u-18" style="edgeStyle=orthogonalEdgeStyle;rounded=0;orthogonalLoop=1;jettySize=auto;html=1;exitX=0;exitY=0;exitDx=0;exitDy=0;endArrow=oval;endFill=0;" edge="1" parent="1">
          <mxGeometry relative="1" as="geometry">
            <mxPoint x="-170" y="32" as="targetPoint" />
            <mxPoint x="-170" y="50" as="sourcePoint" />
            <Array as="points" />
          </mxGeometry>
        </mxCell>
        <mxCell id="G0t1F4hipUzazLxo6w_u-19" value="&lt;font style=&quot;font-size: 8px;&quot;&gt;Email&lt;/font&gt;" style="text;html=1;align=center;verticalAlign=middle;whiteSpace=wrap;rounded=0;" vertex="1" parent="1">
          <mxGeometry x="-270" y="76" width="30" height="7" as="geometry" />
        </mxCell>
        <mxCell id="G0t1F4hipUzazLxo6w_u-20" style="edgeStyle=orthogonalEdgeStyle;rounded=0;orthogonalLoop=1;jettySize=auto;html=1;exitX=0;exitY=0.25;exitDx=0;exitDy=0;endArrow=oval;endFill=1;" edge="1" parent="1" source="G0t1F4hipUzazLxo6w_u-2">
          <mxGeometry relative="1" as="geometry">
            <mxPoint x="-240" y="60" as="targetPoint" />
            <mxPoint x="-285" y="38.760000000000005" as="sourcePoint" />
            <Array as="points" />
          </mxGeometry>
        </mxCell>
        <mxCell id="G0t1F4hipUzazLxo6w_u-21" value="" style="endArrow=none;html=1;rounded=0;exitX=1;exitY=0.5;exitDx=0;exitDy=0;" edge="1" parent="1" source="G0t1F4hipUzazLxo6w_u-2">
          <mxGeometry width="50" height="50" relative="1" as="geometry">
            <mxPoint x="-70" y="60" as="sourcePoint" />
            <mxPoint x="-20" y="70" as="targetPoint" />
          </mxGeometry>
        </mxCell>
        <mxCell id="G0t1F4hipUzazLxo6w_u-27" style="edgeStyle=orthogonalEdgeStyle;rounded=0;orthogonalLoop=1;jettySize=auto;html=1;exitX=0;exitY=0;exitDx=0;exitDy=0;endArrow=oval;endFill=1;" edge="1" parent="1">
          <mxGeometry relative="1" as="geometry">
            <mxPoint x="149.37" y="33.00000000000001" as="targetPoint" />
            <mxPoint x="149.37" y="51.00000000000001" as="sourcePoint" />
            <Array as="points" />
          </mxGeometry>
        </mxCell>
        <mxCell id="G0t1F4hipUzazLxo6w_u-28" value="&lt;font style=&quot;font-size: 8px;&quot;&gt;Numero di serie&lt;/font&gt;" style="text;html=1;align=center;verticalAlign=middle;whiteSpace=wrap;rounded=1;strokeColor=none;glass=0;" vertex="1" parent="1">
          <mxGeometry x="120" y="19.76000000000001" width="65.62" height="7.5" as="geometry" />
        </mxCell>
        <mxCell id="G0t1F4hipUzazLxo6w_u-29" style="edgeStyle=orthogonalEdgeStyle;rounded=0;orthogonalLoop=1;jettySize=auto;html=1;exitX=0;exitY=0;exitDx=0;exitDy=0;endArrow=oval;endFill=0;" edge="1" parent="1">
          <mxGeometry relative="1" as="geometry">
            <mxPoint x="206.37" y="33.00000000000001" as="targetPoint" />
            <mxPoint x="206.37" y="51.00000000000001" as="sourcePoint" />
            <Array as="points" />
          </mxGeometry>
        </mxCell>
        <mxCell id="G0t1F4hipUzazLxo6w_u-30" style="edgeStyle=orthogonalEdgeStyle;rounded=0;orthogonalLoop=1;jettySize=auto;html=1;exitX=0;exitY=0;exitDx=0;exitDy=0;endArrow=oval;endFill=0;" edge="1" parent="1">
          <mxGeometry relative="1" as="geometry">
            <mxPoint x="238.12" y="33.00000000000001" as="targetPoint" />
            <mxPoint x="238.12" y="51.00000000000001" as="sourcePoint" />
            <Array as="points" />
          </mxGeometry>
        </mxCell>
        <mxCell id="G0t1F4hipUzazLxo6w_u-31" style="edgeStyle=orthogonalEdgeStyle;rounded=0;orthogonalLoop=1;jettySize=auto;html=1;exitX=1;exitY=0.5;exitDx=0;exitDy=0;endArrow=oval;endFill=0;" edge="1" parent="1">
          <mxGeometry relative="1" as="geometry">
            <mxPoint x="244.37" y="72.75" as="sourcePoint" />
            <mxPoint x="267.49" y="72.75" as="targetPoint" />
          </mxGeometry>
        </mxCell>
        <mxCell id="G0t1F4hipUzazLxo6w_u-32" style="edgeStyle=orthogonalEdgeStyle;rounded=0;orthogonalLoop=1;jettySize=auto;html=1;exitX=1;exitY=0.5;exitDx=0;exitDy=0;endArrow=oval;endFill=0;" edge="1" parent="1">
          <mxGeometry relative="1" as="geometry">
            <mxPoint x="244.37" y="54.13000000000001" as="sourcePoint" />
            <mxPoint x="267.49" y="54.13000000000001" as="targetPoint" />
          </mxGeometry>
        </mxCell>
        <mxCell id="G0t1F4hipUzazLxo6w_u-33" value="&lt;font style=&quot;font-size: 8px;&quot;&gt;Tecnologia&lt;/font&gt;" style="text;html=1;align=center;verticalAlign=middle;whiteSpace=wrap;rounded=1;strokeColor=none;" vertex="1" parent="1">
          <mxGeometry x="269.37" y="43.13" width="46" height="19" as="geometry" />
        </mxCell>
        <mxCell id="G0t1F4hipUzazLxo6w_u-34" style="edgeStyle=orthogonalEdgeStyle;rounded=0;orthogonalLoop=1;jettySize=auto;html=1;exitX=0;exitY=0;exitDx=0;exitDy=0;endArrow=oval;endFill=0;" edge="1" parent="1">
          <mxGeometry relative="1" as="geometry">
            <mxPoint x="-50" y="31.260000000000005" as="targetPoint" />
            <mxPoint x="-30.620000000000005" y="31.260000000000005" as="sourcePoint" />
            <Array as="points" />
          </mxGeometry>
        </mxCell>
        <mxCell id="G0t1F4hipUzazLxo6w_u-35" style="edgeStyle=orthogonalEdgeStyle;rounded=0;orthogonalLoop=1;jettySize=auto;html=1;endArrow=oval;endFill=0;" edge="1" parent="1">
          <mxGeometry relative="1" as="geometry">
            <mxPoint x="-50" y="44.38000000000001" as="targetPoint" />
            <mxPoint x="-30" y="44.38000000000001" as="sourcePoint" />
            <Array as="points" />
          </mxGeometry>
        </mxCell>
        <mxCell id="G0t1F4hipUzazLxo6w_u-36" value="" style="endArrow=none;html=1;rounded=0;entryX=0.551;entryY=1.003;entryDx=0;entryDy=0;entryPerimeter=0;" edge="1" parent="1">
          <mxGeometry width="50" height="50" relative="1" as="geometry">
            <mxPoint x="-20.5" y="70" as="sourcePoint" />
            <mxPoint x="-20.5" y="46.94" as="targetPoint" />
          </mxGeometry>
        </mxCell>
        <mxCell id="G0t1F4hipUzazLxo6w_u-37" value="&lt;p style=&quot;line-height: 110%;&quot;&gt;&lt;font style=&quot;font-size: 7px;&quot;&gt;DataVisita&lt;/font&gt;&lt;/p&gt;" style="ellipse;whiteSpace=wrap;html=1;" vertex="1" parent="1">
          <mxGeometry x="-38" y="26.880000000000003" width="36.12" height="20" as="geometry" />
        </mxCell>
        <mxCell id="G0t1F4hipUzazLxo6w_u-38" value="&lt;font style=&quot;font-size: 8px;&quot;&gt;Durata&lt;/font&gt;" style="text;html=1;align=center;verticalAlign=middle;whiteSpace=wrap;rounded=1;strokeColor=none;glass=0;" vertex="1" parent="1">
          <mxGeometry x="-44.940000000000005" y="86" width="50" height="17" as="geometry" />
        </mxCell>
        <mxCell id="G0t1F4hipUzazLxo6w_u-39" style="edgeStyle=orthogonalEdgeStyle;rounded=0;orthogonalLoop=1;jettySize=auto;html=1;exitX=1;exitY=0.5;exitDx=0;exitDy=0;endArrow=oval;endFill=0;" edge="1" parent="1">
          <mxGeometry relative="1" as="geometry">
            <mxPoint x="-20.59" y="88.95" as="targetPoint" />
            <mxPoint x="-20.59" y="68.95" as="sourcePoint" />
            <Array as="points">
              <mxPoint x="-20.59" y="88.95" />
            </Array>
          </mxGeometry>
        </mxCell>
        <mxCell id="G0t1F4hipUzazLxo6w_u-40" style="edgeStyle=orthogonalEdgeStyle;rounded=0;orthogonalLoop=1;jettySize=auto;html=1;exitX=1;exitY=0.5;exitDx=0;exitDy=0;endArrow=oval;endFill=0;" edge="1" parent="1">
          <mxGeometry relative="1" as="geometry">
            <mxPoint x="-140.12" y="83.5" as="targetPoint" />
            <mxPoint x="-160" y="83.5" as="sourcePoint" />
            <Array as="points">
              <mxPoint x="-145.12" y="83.5" />
            </Array>
          </mxGeometry>
        </mxCell>
        <mxCell id="G0t1F4hipUzazLxo6w_u-41" value="&lt;span style=&quot;font-size: 8px;&quot;&gt;Data&amp;nbsp;&lt;/span&gt;&lt;div style=&quot;line-height: 20%;&quot;&gt;&lt;span style=&quot;font-size: 8px;&quot;&gt;di nascita&lt;/span&gt;&lt;/div&gt;" style="text;html=1;align=center;verticalAlign=middle;whiteSpace=wrap;rounded=1;strokeColor=none;" vertex="1" parent="1">
          <mxGeometry x="-141" y="72" width="37" height="21" as="geometry" />
        </mxCell>
      </root>
    </mxGraphModel>
  </diagram>
</mxfile>
